<svg width="40" height="40" viewBox="0 0 40 40" fill="none" xmlns="http://www.w3.org/2000/svg">
<rect x="0.5" y="0.5" width="39" height="39" rx="7.5" fill="white"/>
<rect x="0.5" y="0.5" width="39" height="39" rx="7.5" stroke="#E9EAEB"/>
<path fill-rule="evenodd" clip-rule="evenodd" d="M19.9932 13.1358C17.9938 10.7984 14.6597 10.1696 12.1547 12.31C9.64964 14.4504 9.29697 18.029 11.2642 20.5604C12.8998 22.6651 17.8498 27.1041 19.4721 28.5408C19.6536 28.7016 19.7444 28.7819 19.8502 28.8135C19.9426 28.8411 20.0437 28.8411 20.1361 28.8135C20.2419 28.7819 20.3327 28.7016 20.5142 28.5408C22.1365 27.1041 27.0865 22.6651 28.7221 20.5604C30.6893 18.029 30.3797 14.4279 27.8316 12.31C25.2835 10.1922 21.9925 10.7984 19.9932 13.1358Z" stroke="black" stroke-width="2" stroke-linecap="round" stroke-linejoin="round"/>
</svg>
